HIERARCHY
ROOT Hips
{
  OFFSET 221.538 92.7087 118.372
  CHANNELS 6 Xposition Yposition Zposition Zrotation Xrotation Yrotation
  JOINT RightUpLeg
  {
    OFFSET -8.9458 -8.66707 0.101652
    CHANNELS 3 Zrotation Xrotation Yrotation
    JOINT RightLeg
    {
      OFFSET 0 -44.4227 1.3727
      CHANNELS 3 Zrotation Xrotation Yrotation
      JOINT RightFoot
      {
        OFFSET 0.253549 -42.0924 -1.46059
        CHANNELS 3 Zrotation Xrotation Yrotation
        JOINT RightToes
        {
          OFFSET 0.04 -4.41509 8.4991
          CHANNELS 3 Zrotation Xrotation Yrotation
          End Site
          {
            OFFSET -0.08 -0.137448 9.77979
          }
        }
      }
    }
  }
  JOINT Spine
  {
    OFFSET 0 11.8905 0
    CHANNELS 3 Zrotation Xrotation Yrotation
    JOINT Spine1
    {
      OFFSET 0 25.6574 0.127663
      CHANNELS 3 Zrotation Xrotation Yrotation
      JOINT HEad
      {
        OFFSET 0 8.73416 0.011341
        CHANNELS 3 Zrotation Xrotation Yrotation
        End Site
        {
          OFFSET -0.29 12.7742 2.51395
        }
      }
      JOINT LeftShoulder1
      {
        OFFSET 8.99 -0.362252 -0.22
        CHANNELS 3 Zrotation Xrotation Yrotation
        JOINT LeftArm
        {
          OFFSET 10.2827 -0.00338 0.322123
          CHANNELS 3 Zrotation Xrotation Yrotation
          JOINT LeftForeArm
          {
            OFFSET 32.7669 0.099144 -1.42434
            CHANNELS 3 Zrotation Xrotation Yrotation
            JOINT LeftHand
            {
              OFFSET 27.5643 0.085362 1.02216
              CHANNELS 3 Zrotation Xrotation Yrotation
              End Site
              {
                OFFSET 16.7443 -0.6 1.50291
              }
            }
          }
        }
      }
      JOINT RightShoulder
      {
        OFFSET -8.99 -0.362252 -0.22
        CHANNELS 3 Zrotation Xrotation Yrotation
        JOINT RightArm
        {
          OFFSET -10.2827 -0.00338 0.322123
          CHANNELS 3 Zrotation Xrotation Yrotation
          JOINT RightForeArm
          {
            OFFSET -32.8971 0.099144 -1.42434
            CHANNELS 3 Zrotation Xrotation Yrotation
            JOINT RightHand
            {
              OFFSET -27.4921 0.085362 1.02216
              CHANNELS 3 Zrotation Xrotation Yrotation
              End Site
              {
                OFFSET -16.6312 -0.6 1.50291
              }
            }
          }
        }
      }
    }
  }
  JOINT LeftUpLeg
  {
    OFFSET 8.9458 -8.66707 0.101652
    CHANNELS 3 Zrotation Xrotation Yrotation
    JOINT LeftLeg
    {
      OFFSET 0 -44.4227 1.3727
      CHANNELS 3 Zrotation Xrotation Yrotation
      JOINT LeftFoot
      {
        OFFSET -0.253549 -42.0924 -1.46059
        CHANNELS 3 Zrotation Xrotation Yrotation
        JOINT LeftToes
        {
          OFFSET -0.04 -4.41509 8.4991
          CHANNELS 3 Zrotation Xrotation Yrotation
          End Site
          {
            OFFSET 0.08 -0.047448 9.77979
          }
        }
      }
    }
  }
}
MOTION
Frames:	16
Frame Time:	0.0166667
0	104.085	0	1.22441	1.38664	149.659	1.15886	1.20724	10.0943	1.65301	9.92968	-12.2464	1.9626	-7.68258	0.0816237	0.0462048	0.000533964	0.662642	-0.08697	-2.94109	0.120367	-0.168107	-5.87958	0.236488	1.51033	11.9262	24.6318	7.95E-16	0.00E+00	0.00E+00	0.521713	-8.87482	-2.66604	-2.26494	9.66453	-5.52482	4.40372	8.91344	7.25331	7.95E-16	0.00E+00	0.00E+00	2.89992	-7.89891	-0.523435	1.23539	14.6691	5.16737	-0.282116	12.0371	-3.09801	-2.18148	1.68307	24.0517	2.10797	9.64218	3.36854	-6.79613	-16.049	-1.36185	1.52E-14	3.26E-14	5.17E-15
-0.0126	104.088	-0.012	1.22427	1.40016	149.683	1.14094	1.22707	10.0775	1.65182	9.92467	-12.2381	1.96927	-7.68078	0.0798293	0.0462048	0.000533964	0.662642	-0.0856852	-2.94257	0.118759	-0.165613	-5.88253	0.23333	1.48365	11.976	24.6074	7.95E-16	1.59E-15	3.18E-15	0.5169	-8.89846	-2.66729	-2.28865	9.83703	-5.52481	4.39797	8.92299	7.2954	7.95E-16	1.59E-15	3.18E-15	2.85797	-7.85743	-0.513791	1.23827	14.7265	5.15644	-0.303942	12.0495	-3.08221	-2.20119	1.68864	24.0431	2.11385	9.65027	3.35281	-6.79161	-16.0502	-1.35977	1.48E-14	3.26E-14	5.57E-15
-0.0259	104.091	-0.028	1.22495	1.40759	149.696	1.12136	1.24384	10.0611	1.65554	9.91619	-12.2203	1.97649	-7.68004	0.0788594	0.0462048	0.000533964	0.662642	-0.0831743	-2.94592	0.11753	-0.160551	-5.88866	0.231939	1.45992	12.0154	24.6032	-1.59E-15	0.00E+00	0.00E+00	0.537174	-8.86308	-2.66375	-2.33765	9.96042	-5.52511	4.37138	8.9758	7.27268	-1.59E-15	0.00E+00	0.00E+00	2.81593	-7.84121	-0.49761	1.24061	14.7639	5.14337	-0.293137	12.0459	-3.09108	-2.20999	1.69456	24.0299	2.10941	9.65737	3.35622	-6.78857	-16.0519	-1.3625	1.38E-14	3.10E-14	5.17E-15
-0.0399	104.094	-0.045	1.22119	1.41628	149.708	1.09322	1.26101	10.0434	1.66462	9.90567	-12.2	1.98075	-7.67967	0.0779381	0.0462048	0.000533964	0.662642	-0.0812832	-2.95007	0.116646	-0.156474	-5.89562	0.231461	1.43954	12.0478	24.6104	7.95E-16	0.00E+00	0.00E+00	0.559957	-8.79944	-2.67988	-2.3735	9.96924	-5.52396	4.37078	9.02192	7.23561	7.95E-16	0.00E+00	0.00E+00	2.77063	-7.82143	-0.473461	1.23698	14.7452	5.11737	-0.26872	12.0324	-3.10937	-2.22443	1.70143	24.0043	2.09862	9.65797	3.38009	-6.78045	-16.0537	-1.3658	1.29E-14	3.26E-14	5.57E-15
-0.0533	104.096	-0.062	1.21602	1.42292	149.72	1.07283	1.27559	10.0368	1.66192	9.8951	-12.1924	1.98895	-7.68011	0.0770774	0.0462048	0.000533964	0.662642	-0.0796737	-2.95416	0.115875	-0.150784	-5.90569	0.231168	1.41341	12.0789	24.6373	1.59E-15	-1.59E-15	-3.18E-15	0.567795	-8.76174	-2.67162	-2.38911	9.94117	-5.52222	4.41398	9.02138	7.22762	1.59E-15	-1.59E-15	-3.18E-15	2.68816	-7.81174	-0.460339	1.25765	14.7247	5.09204	-0.265498	12.0309	-3.09888	-2.24136	1.7103	23.9862	2.09015	9.65381	3.39946	-6.77399	-16.0558	-1.36719	1.21E-14	3.18E-14	5.17E-15
-0.0633	104.098	-0.076	1.20786	1.43167	149.735	1.05414	1.29301	10.0376	1.66035	9.88203	-12.1981	1.99349	-7.6818	0.0762896	0.0462048	0.000533964	0.662642	-0.078121	-2.95786	0.114988	-0.148613	-5.91309	0.230327	1.40115	12.0987	24.6613	0.00E+00	0.00E+00	0.00E+00	0.584026	-8.76773	-2.66135	-2.39675	9.95927	-5.52117	4.42232	9.04695	7.22094	0.00E+00	0.00E+00	0.00E+00	2.61131	-7.76795	-0.462736	1.26707	14.7572	5.05816	-0.284166	12.0546	-3.09342	-2.26292	1.7183	23.965	2.08629	9.64824	3.41269	-6.76679	-16.0582	-1.36816	1.36E-14	3.10E-14	5.57E-15
-0.0715	104.099	-0.089	1.20171	1.44737	149.754	1.03593	1.31649	10.0536	1.6632	9.8715	-12.2274	1.99881	-7.6865	0.0755867	0.0462048	0.000533964	0.662642	-0.0764024	-2.95987	0.11375	-0.146898	-5.91573	0.228208	1.38317	12.1031	24.7128	-1.59E-15	-1.59E-15	0.00E+00	0.596487	-8.78606	-2.6379	-2.40985	10.0754	-5.50456	4.41321	9.09093	7.23137	-1.59E-15	-1.59E-15	0.00E+00	2.53538	-7.71672	-0.442886	1.26399	14.8694	5.01109	-0.318217	12.0954	-3.09537	-2.28787	1.73367	23.9552	2.08516	9.64309	3.4185	-6.76025	-16.0612	-1.36877	1.36E-14	3.18E-14	4.77E-15
-0.079	104.1	-0.101	1.19954	1.46516	149.78	1.0168	1.34178	10.054	1.66444	9.86607	-12.2425	2.0021	-7.69687	0.0749814	0.0462048	0.000533964	0.662642	-0.0743253	-2.96127	0.111933	-0.142944	-5.9163	0.223233	1.37696	12.078	24.7608	0.00E+00	1.59E-15	0.00E+00	0.605936	-8.80862	-2.62115	-2.41943	10.1654	-5.48317	4.41723	9.13031	7.245	0.00E+00	1.59E-15	0.00E+00	2.45854	-7.6373	-0.41797	1.25766	14.971	4.95331	-0.347643	12.1137	-3.10711	-2.31045	1.74766	23.9561	2.08728	9.64015	3.40854	-6.75538	-16.0628	-1.36903	1.39E-14	3.26E-14	5.57E-15
-0.0853	104.1	-0.113	1.20058	1.48908	149.811	0.99879	1.37392	10.0406	1.66337	9.86331	-12.2418	2.00465	-7.7088	0.0744848	0.0462048	0.000533964	0.662642	-0.0729	-2.96223	0.109303	-0.134973	-5.91573	0.215163	1.37173	12.0572	24.8019	0.00E+00	-3.18E-15	0.00E+00	0.613313	-8.81088	-2.59412	-2.42048	10.1829	-5.46911	4.42019	9.15125	7.27155	0.00E+00	-3.18E-15	0.00E+00	2.37401	-7.55761	-0.40226	1.24792	14.988	4.91675	-0.325018	12.1331	-3.14006	-2.32379	1.7685	23.9622	2.09045	9.64274	3.39028	-6.7509	-16.0638	-1.36899	1.41E-14	3.10E-14	5.17E-15
-0.0918	104.1	-0.125	1.19641	1.50519	149.845	0.977658	1.39405	10.0182	1.66084	9.86771	-12.2238	2.00683	-7.72127	0.0741087	0.0462048	0.000533964	0.662642	-0.0719111	-2.96291	0.104428	-0.12824	-5.91499	0.205574	1.37126	12.04	24.8309	-7.95E-16	0.00E+00	-9.54E-15	0.612815	-8.80193	-2.55917	-2.40069	10.1689	-5.46571	4.40251	9.17682	7.29811	-7.95E-16	0.00E+00	-9.54E-15	2.28146	-7.52829	-0.413768	1.23557	14.9465	4.92154	-0.281038	12.1457	-3.17748	-2.32898	1.77297	23.9679	2.09232	9.65445	3.37182	-6.74826	-16.0643	-1.36868	1.48E-14	3.10E-14	5.96E-15
-0.0999	104.099	-0.137	1.19555	1.52052	149.884	0.959255	1.41017	9.99896	1.66014	9.87376	-12.2126	2.00849	-7.73143	0.0738647	0.0462048	0.000533964	0.662642	-0.0709935	-2.9635	0.101372	-0.127738	-5.91502	0.198993	1.39418	12.0264	24.8368	1.59E-15	1.59E-15	9.54E-15	0.617397	-8.80088	-2.54382	-2.38237	10.1918	-5.46252	4.41926	9.22021	7.3344	1.59E-15	1.59E-15	9.54E-15	2.21875	-7.53876	-0.452794	1.21994	14.9313	4.94149	-0.297216	12.1441	-3.18965	-2.33349	1.77134	23.9844	2.09526	9.67104	3.33729	-6.74783	-16.0646	-1.36816	1.35E-14	3.10E-14	5.57E-15
-0.1069	104.099	-0.146	1.19995	1.53621	149.925	0.949958	1.43008	9.98947	1.66299	9.88025	-12.2199	2.0099	-7.73447	0.0737639	0.0462048	0.000533964	0.662642	-0.0700251	-2.96416	0.0995008	-0.129884	-5.91677	0.195594	1.43205	12.0364	24.8238	7.95E-16	-3.18E-15	0.00E+00	0.655923	-8.79547	-2.54653	-2.38865	10.2412	-5.45987	4.43721	9.25536	7.34939	7.95E-16	-3.18E-15	0.00E+00	2.15946	-7.51931	-0.490484	1.22608	14.9377	4.9427	-0.344058	12.1364	-3.16135	-2.33969	1.76927	24.0049	2.11354	9.68972	3.2897	-6.75223	-16.0648	-1.36745	1.35E-14	3.26E-14	5.57E-15
-0.1107	104.098	-0.153	1.20562	1.55239	149.964	0.946085	1.45126	9.98213	1.66734	9.8866	-12.2355	2.01137	-7.73589	0.0738192	0.0462048	0.000533964	0.662642	-0.0688778	-2.96507	0.0982924	-0.132052	-5.92203	0.194304	1.45571	12.0619	24.7935	-8.83E-32	1.59E-15	3.18E-15	0.687717	-8.7743	-2.56579	-2.39167	10.2623	-5.4574	4.43566	9.30007	7.34619	-8.83E-32	1.59E-15	3.18E-15	2.11213	-7.45346	-0.51259	1.2204	14.9566	4.91244	-0.363981	12.1465	-3.16546	-2.34503	1.77224	24.0061	2.12905	9.70763	3.24789	-6.75716	-16.0651	-1.3666	1.51E-14	2.94E-14	5.96E-15
-0.1143	104.098	-0.159	1.2118	1.56782	150.003	0.940999	1.47067	9.97859	1.67214	9.8946	-12.2515	2.01277	-7.73866	0.0740432	0.0462048	0.000533964	0.662642	-0.0674217	-2.9664	0.0972642	-0.131648	-5.93013	0.193838	1.45406	12.104	24.761	-8.83E-32	-1.59E-15	-3.18E-15	0.695896	-8.69861	-2.59581	-2.38581	10.2088	-5.44544	4.44804	9.33424	7.34253	-8.83E-32	-1.59E-15	-3.18E-15	2.05998	-7.40267	-0.524797	1.20738	15.0085	4.86989	-0.323919	12.1463	-3.2065	-2.34824	1.78169	23.9854	2.13352	9.72172	3.23185	-6.76147	-16.0656	-1.36565	1.25E-14	3.18E-14	5.17E-15
-0.1185	104.097	-0.165	1.22272	1.59002	150.034	0.933907	1.497	9.97697	1.67545	9.90487	-12.2558	2.01394	-7.74191	0.0744476	0.0462048	0.000533964	0.662642	-0.0655021	-2.96853	0.0964045	-0.126027	-5.93439	0.192808	1.43735	12.1458	24.7416	0.00E+00	-1.59E-15	0.00E+00	0.681314	-8.61844	-2.61757	-2.37193	10.1487	-5.42671	4.48624	9.34705	7.34503	0.00E+00	-1.59E-15	0.00E+00	2.00481	-7.37807	-0.516663	1.20093	15.0098	4.82535	-0.281493	12.1441	-3.24047	-2.35573	1.80543	23.953	2.13314	9.73395	3.24065	-6.76637	-16.0664	-1.36463	1.57E-14	3.18E-14	5.17E-15
-0.1221	104.097	-0.17	1.23502	1.61372	150.056	0.927239	1.52368	9.97732	1.67973	9.91364	-12.2665	2.01473	-7.74455	0.0750444	0.0462048	0.000533964	0.662642	-0.0624317	-2.9701	0.0957014	-0.120018	-5.93594	0.190191	1.42208	12.1887	24.7309	-7.95E-16	1.59E-15	0.00E+00	0.679033	-8.56175	-2.62808	-2.37846	10.136	-5.41806	4.50834	9.3596	7.3611	-7.95E-16	1.59E-15	0.00E+00	1.95416	-7.38033	-0.495059	1.20204	14.9647	4.78775	-0.256323	12.1267	-3.2579	-2.36389	1.83198	23.9241	2.13038	9.74319	3.2548	-6.76978	-16.0678	-1.36359	1.46E-14	3.26E-14	6.36E-15
